<svg width="30" height="30" viewBox="0 0 30 30" fill="none" xmlns="http://www.w3.org/2000/svg">
<path d="M21.75 4.5C22.7446 4.5 23.6984 4.89509 24.4016 5.59835C25.1049 6.30161 25.5 7.25544 25.5 8.25V14.4C25.0206 14.1547 24.5182 13.9573 24 13.8105V10.5H6V21.75C6 22.3467 6.23705 22.919 6.65901 23.341C7.08097 23.7629 7.65326 24 8.25 24H13.8105C13.959 24.5235 14.1555 25.0245 14.4 25.5H8.25C7.25544 25.5 6.30161 25.1049 5.59835 24.4016C4.89509 23.6984 4.5 22.7446 4.5 21.75V8.25C4.5 7.25544 4.89509 6.30161 5.59835 5.59835C6.30161 4.89509 7.25544 4.5 8.25 4.5H21.75ZM21.75 6H8.25C7.65326 6 7.08097 6.23705 6.65901 6.65901C6.23705 7.08097 6 7.65326 6 8.25V9H24V8.25C24 7.65326 23.7629 7.08097 23.341 6.65901C22.919 6.23705 22.3467 6 21.75 6ZM20.8125 18.75C20.8125 18.5014 20.9113 18.2629 21.0871 18.0871C21.2629 17.9113 21.5014 17.8125 21.75 17.8125C21.9986 17.8125 22.2371 17.9113 22.4129 18.0871C22.5887 18.2629 22.6875 18.5014 22.6875 18.75C22.6875 18.9986 22.5887 19.2371 22.4129 19.4129C22.2371 19.5887 21.9986 19.6875 21.75 19.6875C21.5014 19.6875 21.2629 19.5887 21.0871 19.4129C20.9113 19.2371 20.8125 18.9986 20.8125 18.75ZM22.5 24.75C22.5 24.9489 22.421 25.1397 22.2803 25.2803C22.1397 25.421 21.9489 25.5 21.75 25.5C21.5511 25.5 21.3603 25.421 21.2197 25.2803C21.079 25.1397 21 24.9489 21 24.75V21.75C21 21.5511 21.079 21.3603 21.2197 21.2197C21.3603 21.079 21.5511 21 21.75 21C21.9489 21 22.1397 21.079 22.2803 21.2197C22.421 21.3603 22.5 21.5511 22.5 21.75V24.75ZM15 21.75C15 19.9598 15.7112 18.2429 16.977 16.977C18.2429 15.7112 19.9598 15 21.75 15C23.5402 15 25.2571 15.7112 26.523 16.977C27.7888 18.2429 28.5 19.9598 28.5 21.75C28.5 23.5402 27.7888 25.2571 26.523 26.523C25.2571 27.7888 23.5402 28.5 21.75 28.5C19.9598 28.5 18.2429 27.7888 16.977 26.523C15.7112 25.2571 15 23.5402 15 21.75ZM16.5 21.75C16.5 22.4394 16.6358 23.1221 16.8996 23.7591C17.1635 24.396 17.5502 24.9748 18.0377 25.4623C18.5252 25.9498 19.104 26.3365 19.7409 26.6004C20.3779 26.8642 21.0606 27 21.75 27C22.4394 27 23.1221 26.8642 23.7591 26.6004C24.396 26.3365 24.9748 25.9498 25.4623 25.4623C25.9498 24.9748 26.3365 24.396 26.6004 23.7591C26.8642 23.1221 27 22.4394 27 21.75C27 20.3576 26.4469 19.0223 25.4623 18.0377C24.4777 17.0531 23.1424 16.5 21.75 16.5C20.3576 16.5 19.0223 17.0531 18.0377 18.0377C17.0531 19.0223 16.5 20.3576 16.5 21.75Z" fill="#D9D9D9"/>
</svg>
