<svg width="30" height="30" viewBox="0 0 30 30" fill="none" xmlns="http://www.w3.org/2000/svg">
<path d="M26.6442 13.6566L16.2504 4.77532C15.9108 4.48483 15.4786 4.3252 15.0317 4.3252C14.5847 4.3252 14.1525 4.48483 13.8129 4.77532L3.35665 13.6566C3.20279 13.7853 3.07596 13.9432 2.98349 14.1213C2.89101 14.2993 2.83472 14.4939 2.81787 14.6938C2.80102 14.8937 2.82394 15.095 2.8853 15.286C2.94667 15.4769 3.04527 15.6539 3.1754 15.8066C3.32054 15.9829 3.50419 16.1236 3.71222 16.2179C3.92025 16.3121 4.14712 16.3575 4.3754 16.3503H5.68165V24.6566C5.68165 24.7904 5.708 24.9228 5.7592 25.0464C5.8104 25.17 5.88544 25.2823 5.98004 25.3769C6.07464 25.4715 6.18694 25.5466 6.31054 25.5978C6.43414 25.649 6.56662 25.6753 6.7004 25.6753H11.2942C11.4279 25.6753 11.5604 25.649 11.684 25.5978C11.8076 25.5466 11.9199 25.4715 12.0145 25.3769C12.1091 25.2823 12.1842 25.17 12.2354 25.0464C12.2866 24.9228 12.3129 24.7904 12.3129 24.6566V19.5441C12.3129 19.3783 12.3788 19.2193 12.496 19.1021C12.6132 18.9849 12.7721 18.9191 12.9379 18.9191H17.0879C17.2537 18.9191 17.4126 18.9849 17.5298 19.1021C17.6471 19.2193 17.7129 19.3783 17.7129 19.5441V24.6566C17.7129 24.7904 17.7393 24.9228 17.7904 25.0464C17.8416 25.17 17.9167 25.2823 18.0113 25.3769C18.1059 25.4715 18.2182 25.5466 18.3418 25.5978C18.4654 25.649 18.5979 25.6753 18.7317 25.6753H23.3254C23.4592 25.6753 23.5917 25.649 23.7153 25.5978C23.8389 25.5466 23.9512 25.4715 24.0458 25.3769C24.1404 25.2823 24.2154 25.17 24.2666 25.0464C24.3178 24.9228 24.3442 24.7904 24.3442 24.6566V16.3503H25.6254C25.9396 16.3532 26.2471 16.259 26.5058 16.0805C26.7644 15.9021 26.9616 15.648 27.0704 15.3532C27.1791 15.0584 27.1942 14.7371 27.1134 14.4334C27.0326 14.1297 26.86 13.8584 26.6192 13.6566H26.6442Z" stroke="#D9D9D9" stroke-width="1.5" stroke-linecap="round" stroke-linejoin="round"/>
</svg>
